<svg aria-hidden="true" style="position: absolute; width: 0; height: 0; overflow: hidden;" version="1.1" xmlns="http://www.w3.org/2000/svg" xmlns:xlink="http://www.w3.org/1999/xlink">
    <defs>
        <symbol id="icon-dislike" viewBox="0 0 32 32">
            <path fill="#ff5252" style="fill: var(--color1, #ff5252)" d="M13.626 30.476l-0.058-1.524h-0.006l0.062 1.524zM14.008 30.4l0.529 1.428 0.015-0.005-0.544-1.425zM15.017 27.592l1.493 0.297v-0.003l-1.493-0.296zM16.834 23.506l1.134 1.018 0.021-0.024-1.155-0.994zM20.677 17.882v0zM22.523 4.122l-0.148 1.516 0.015 0.002h0.015l0.117-1.518zM20.669 3.784l0.407-1.469-0.050-0.015-0.050-0.009-0.305 1.493zM6.76 3.069l-0.002 1.524h0.003l-0.002-1.524zM6.38 6.302v1.524c0.84-0.003 1.519-0.684 1.519-1.524 0-0.715-0.492-1.314-1.155-1.479l-0.010-0.002-0.354 1.481zM5.432 6.302v0zM4.693 10.659l0.399 1.47c0.653-0.182 1.124-0.771 1.124-1.47 0-0.66-0.42-1.222-1.006-1.434l-0.011-0.003-0.506 1.437zM4.876 15.023l0.46 1.454c0.622-0.201 1.064-0.775 1.064-1.453 0-0.745-0.534-1.365-1.24-1.497l-0.009-0.001-0.274 1.498zM5.588 19.657v0zM11.901 19.657l0.116-1.519-0.058-0.005h-0.058v1.524zM12.186 22.33l-1.426-0.533-0.008 0.017-0.005 0.018 1.438 0.498zM12.014 29.687l-1.076 1.079 0.021 0.021 0.021 0.020 1.033-1.12zM13.685 32c0.291-0.012 0.579-0.069 0.853-0.171l-1.059-2.857c0.026-0.011 0.056-0.018 0.088-0.020l0.001-0 0.117 3.045zM14.552 31.825c0.283-0.11 0.608-0.29 0.891-0.622 0.251-0.294 0.398-0.623 0.497-0.902 0.187-0.526 0.354-1.312 0.57-2.411l-2.988-0.594c-0.235 1.181-0.357 1.714-0.451 1.981-0.043 0.117-0.037 0.053 0.056-0.055 0.091-0.105 0.204-0.188 0.332-0.242l0.006-0.002 1.086 2.846zM16.512 27.889c0.229-1.157 0.376-1.713 0.558-2.115 0.16-0.361 0.375-0.666 0.898-1.248l-2.267-2.036c-0.591 0.658-1.058 1.243-1.414 2.042-0.335 0.753-0.538 1.618-0.763 2.767l2.99 0.59zM17.99 24.501c1.128-1.31 1.714-2.249 2.231-3.127 0.498-0.847 0.884-1.554 1.661-2.56l-2.411-1.864c-0.92 1.189-1.405 2.075-1.879 2.88-0.587 1.015-1.22 1.893-1.93 2.7l0.016-0.019 2.31 1.989zM21.882 18.814c0.037-0.047 0.175-0.183 0.489-0.378 0.294-0.183 0.66-0.366 1.062-0.536 0.823-0.35 1.634-0.581 2.008-0.64l-0.482-3.013c-0.69 0.11-1.745 0.43-2.72 0.844-0.576 0.242-1.061 0.494-1.523 0.779l0.048-0.027c-0.442 0.274-0.934 0.64-1.295 1.105l2.412 1.864zM25.099 2.601c-0.267-0.012-0.866-0.003-1.353 0.002-0.242 0.003-0.527 0.005-0.813 0.005-0.063 0-0.127-0-0.19-0l0.010 0-0.084-0.002-0.027-0.002-0.236 3.038c0.28 0.021 0.899 0.014 1.376 0.008 0.564-0.006 1.026-0.012 1.178-0.005l0.14-3.045zM22.67 2.606c-0.607-0.068-1.149-0.17-1.676-0.308l0.082 0.018-0.812 2.936c0.594 0.163 1.312 0.299 2.045 0.381l0.067 0.006 0.294-3.032zM20.975 2.292c-4.76-0.975-9.402-0.751-14.217-0.745l0.003 3.048c5.013-0.008 9.234-0.21 13.603 0.683l0.61-2.987zM6.76 1.547c-0.774 0-1.524 0.285-2.101 0.8l2.027 2.275c0.019-0.017 0.044-0.027 0.071-0.027 0.001 0 0.001 0 0.002 0h-0l0.002-3.048zM4.658 2.347c-0.579 0.517-0.946 1.227-1.036 1.996l3.026 0.354c0.003-0.030 0.017-0.056 0.038-0.075l0-0-2.028-2.275zM3.622 4.343c-0.091 0.768 0.104 1.544 0.547 2.179l2.499-1.745c-0.013-0.019-0.021-0.042-0.021-0.067 0-0.005 0-0.010 0.001-0.014l-0 0.001-3.028-0.355zM4.169 6.522c0.442 0.634 1.103 1.085 1.859 1.265l0.706-2.964c-0.027-0.007-0.050-0.023-0.065-0.045l-0-0-2.499 1.743zM6.38 4.78h-0.948v3.048h0.948v-3.048zM5.431 4.78c-0.887 0.002-1.746 0.317-2.423 0.891l1.97 2.325c0.122-0.104 0.282-0.168 0.457-0.168 0 0 0 0 0 0v0l-0.005-3.048zM3.008 5.672c-0.66 0.561-1.121 1.338-1.275 2.221l-0.003 0.023 3.005 0.51c0.030-0.173 0.118-0.321 0.243-0.427l0.001-0.001-1.97-2.328zM1.73 7.915c-0.148 0.875 0.015 1.774 0.466 2.539l2.627-1.542c-0.062-0.104-0.099-0.23-0.099-0.365 0-0.043 0.004-0.086 0.011-0.127l-0.001 0.004-3.005-0.509zM2.196 10.453c0.448 0.766 1.154 1.349 1.992 1.644l1.013-2.874c-0.161-0.058-0.292-0.168-0.376-0.309l-0.002-0.003-2.627 1.542zM4.294 9.189c-0.845 0.235-1.551 0.734-2.042 1.401l-0.007 0.010 2.462 1.798c0.094-0.128 0.226-0.222 0.381-0.265l0.005-0.001-0.798-2.941zM2.245 10.6c-0.452 0.614-0.724 1.386-0.724 2.221 0 0.055 0.001 0.111 0.004 0.165l-0-0.008 3.045-0.128c-0-0.009-0.001-0.020-0.001-0.030 0-0.159 0.052-0.307 0.139-0.426l-0.001 0.002-2.461-1.798zM1.524 12.978c0.035 0.852 0.36 1.667 0.917 2.312l2.302-1.998c-0.103-0.118-0.168-0.272-0.175-0.44l-0-0.001-3.045 0.128zM2.441 15.29c0.559 0.645 1.321 1.079 2.161 1.234l0.549-2.999c-0.164-0.031-0.304-0.115-0.406-0.232l-0.001-0.001-2.301 1.996zM4.416 13.571c-0.902 0.293-1.641 0.879-2.121 1.645l-0.010 0.016 2.59 1.605c0.106-0.169 0.265-0.296 0.454-0.358l0.006-0.002-0.92-2.906zM2.286 15.232c-0.368 0.584-0.586 1.295-0.586 2.056 0 0.208 0.016 0.412 0.048 0.611l-0.003-0.022 3.013-0.462c-0.006-0.039-0.010-0.083-0.010-0.129 0-0.167 0.048-0.323 0.131-0.454l-0.002 0.004-2.59-1.606zM1.745 17.877c0.142 0.919 0.605 1.757 1.31 2.362l1.987-2.309c-0.149-0.129-0.252-0.308-0.284-0.51l-0.001-0.005-3.013 0.462zM3.055 20.239c0.675 0.584 1.562 0.941 2.532 0.942h0v-3.048c-0.209-0-0.4-0.077-0.547-0.204l0.001 0.001-1.987 2.31zM5.588 21.181h6.313v-3.048h-6.313v3.048zM11.784 21.176c0.174 0.014 0.232 0.027 0.227 0.027-0.143-0.046-0.265-0.12-0.366-0.217l0 0c-0.173-0.156-0.3-0.361-0.356-0.594l-0.002-0.008c-0.023-0.107-0.015-0.171-0.015-0.058h3.048c0-0.113 0.056-0.98-0.631-1.6-0.249-0.22-0.552-0.384-0.887-0.469l-0.015-0.003c-0.224-0.058-0.487-0.1-0.757-0.117l-0.013-0.001-0.233 3.038zM11.27 20.328c0-0.11 0.015-0.178 0.011-0.157-0.048 0.205-0.090 0.359-0.138 0.509l0.014-0.052c-0.164 0.54-0.299 0.928-0.445 1.311l0.048-0.142 2.854 1.067c0.177-0.475 0.34-0.954 0.46-1.352 0.061-0.197 0.113-0.387 0.152-0.552 0.027-0.107 0.091-0.373 0.091-0.632h-3.048zM10.747 21.832c-0.398 1.147-0.926 2.708-1.105 4.229-0.175 1.493-0.061 3.351 1.295 4.706l2.153-2.158c-0.358-0.357-0.561-1.013-0.422-2.191 0.134-1.147 0.549-2.411 0.957-3.589l-2.88-0.997zM10.981 30.807c0.567 0.523 1.515 1.24 2.709 1.19l-0.126-3.045c0.064-0.003 0.055 0.020-0.053-0.038-0.176-0.101-0.328-0.216-0.464-0.348l0.001 0.001-2.066 2.24z"></path>
            <path fill="#ff5252" style="fill: var(--color1, #ff5252)" d="M31.045 17.385l0.018-4.571h-0.018v4.571zM32 16.427h-4.571v0.015l4.571-0.015zM32 2.782l-4.571-0.015v0.015h4.571zM31.045 1.826v4.571h0.018l-0.018-4.571zM25.792 1.826l-0.017 4.571h0.015v-4.571zM24.837 2.782h4.571v-0.015l-4.571 0.015zM24.837 16.427l4.571 0.015v-0.015h-4.571zM25.792 17.384v-4.571h-0.017l0.015 4.571zM31.026 21.955c0.731 0.003 1.454-0.14 2.129-0.418l-3.488-8.453c0.442-0.183 0.917-0.274 1.396-0.274l-0.037 9.143zM33.155 21.538c0.701-0.294 1.299-0.701 1.801-1.204l0-0-6.47-6.461c0.337-0.335 0.739-0.605 1.181-0.788l3.488 8.453zM34.956 20.334c0.515-0.515 0.922-1.128 1.199-1.801l-8.456-3.477c0.183-0.442 0.448-0.841 0.786-1.179l6.47 6.459zM36.155 18.533c0.277-0.674 0.419-1.394 0.416-2.121l-9.143 0.030c-0.002-0.477 0.091-0.948 0.271-1.388l8.457 3.479zM36.571 16.428v-13.644h-9.143v13.644h9.143zM36.571 2.801c0.003-0.727-0.137-1.448-0.416-2.121l-8.456 3.477c-0.172-0.406-0.271-0.879-0.271-1.374 0-0.005 0-0.011 0-0.016v0.001l9.143 0.034zM36.155 0.68c-0.293-0.701-0.698-1.3-1.199-1.803l0 0-6.47 6.459c-0.329-0.329-0.594-0.721-0.777-1.156l-0.009-0.024 8.457-3.477zM34.956-1.123c-0.502-0.503-1.1-0.91-1.765-1.19l-0.036-0.014-3.49 8.453c-0.459-0.193-0.851-0.46-1.179-0.789l-0-0 6.47-6.459zM33.155-2.327c-0.621-0.263-1.344-0.416-2.103-0.416-0.010 0-0.019 0-0.029 0h0.002l0.037 9.143c-0.004 0-0.009 0-0.013 0-0.499 0-0.974-0.101-1.407-0.283l0.024 0.009 3.488-8.451zM31.045-2.743h-5.253v9.143h5.253v-9.143zM25.809-2.743c-0.006-0-0.012-0-0.019-0-0.761 0-1.486 0.154-2.146 0.433l0.036-0.014 3.49 8.45c-0.442 0.183-0.916 0.276-1.394 0.274l0.034-9.143zM23.68-2.324c-0.701 0.294-1.299 0.701-1.801 1.204l-0 0 6.473 6.453c-0.329 0.33-0.721 0.597-1.157 0.78l-0.024 0.009-3.49-8.45zM21.879-1.12c-0.515 0.515-0.922 1.128-1.199 1.801l8.457 3.476c-0.183 0.442-0.448 0.843-0.785 1.179l-6.473-6.458zM20.68 0.68c-0.262 0.621-0.415 1.343-0.415 2.1 0 0.007 0 0.015 0 0.022v-0.001l9.143-0.034c0.002 0.477-0.091 0.948-0.271 1.388l-8.459-3.476zM20.267 2.784v13.644h9.143v-13.644h-9.143zM20.267 16.413c-0.003 0.727 0.139 1.448 0.416 2.121l8.453-3.479c0.18 0.44 0.273 0.911 0.271 1.387l-9.143-0.030zM20.683 18.534c0.276 0.672 0.684 1.285 1.199 1.8l6.47-6.458c0.338 0.338 0.605 0.739 0.785 1.179l-8.454 3.479zM21.882 20.334c0.514 0.517 1.126 0.925 1.8 1.204l3.49-8.451c0.442 0.183 0.844 0.451 1.181 0.789l-6.472 6.459zM23.682 21.538c0.675 0.279 1.399 0.421 2.129 0.418l-0.034-9.143c0.478 0 0.952 0.091 1.396 0.274l-3.49 8.451zM25.794 21.957h5.253v-9.143h-5.253v9.143z"></path>
        </symbol>
        <symbol id="icon-apply" viewBox="0 0 32 32">
            <path fill="#ff5252" style="fill: var(--color1, #ff5252)" d="M7.333 11.333c-4.049 0.005-7.329 3.286-7.333 7.334v4.666c0 0.368 0.299 0.667 0.667 0.667h2.413c0.173 0 0.317 0.133 0.331 0.304l0.592 7.085c0.029 0.347 0.32 0.613 0.666 0.611h5.334c0 0 0.001 0 0.001 0 0.349 0 0.635-0.268 0.665-0.609l0-0.003 0.592-7.083c0.014-0.173 0.158-0.304 0.331-0.306h2.413c0.368 0 0.667-0.299 0.667-0.667v-4.666c-0.004-4.051-3.288-7.334-7.339-7.334h-0zM7.333 10c0.026 0.001 0.056 0.001 0.086 0.001 2.578 0 4.667-2.090 4.667-4.667s-2.090-4.667-4.667-4.667c-0.030 0-0.061 0-0.091 0.001l0.005-0c-2.54 0.049-4.581 2.119-4.581 4.666s2.041 4.618 4.576 4.666l0.005 0zM31.707 2.208c-0.134-0.127-0.305-0.216-0.495-0.25l-0.006-0.001c-0.161-0.074-0.349-0.118-0.548-0.118-0.365 0-0.695 0.146-0.936 0.384l-6.153 6.157c-0.061 0.060-0.144 0.097-0.236 0.097s-0.175-0.037-0.236-0.097l-1.573-1.573c-0.241-0.241-0.574-0.39-0.942-0.39-0.736 0-1.333 0.597-1.333 1.333 0 0.368 0.149 0.702 0.391 0.943v0l2.102 2.107c0.88 0.877 2.302 0.877 3.182 0l6.685-6.685c0.231-0.236 0.373-0.56 0.373-0.917 0-0.053-0.003-0.105-0.009-0.157l0.001 0.006c0.008-0.046 0.012-0.099 0.012-0.154 0-0.267-0.107-0.508-0.279-0.685l0 0z"></path>
            <path fill="#ff5252" style="fill: var(--color1, #ff5252)" d="M30.731 9.587c-0.119-0.039-0.256-0.061-0.398-0.061-0.594 0-1.097 0.388-1.269 0.925l-0.003 0.009c-0.787 2.458-3.052 4.206-5.726 4.206-3.314 0-6-2.686-6-6s2.685-5.999 5.997-6h0c0.737 0 1.334-0.597 1.334-1.334s-0.597-1.334-1.334-1.334v0c-0.001 0-0.003 0-0.004 0-4.787 0-8.667 3.88-8.667 8.667s3.88 8.667 8.667 8.667c3.862 0 7.134-2.526 8.254-6.015l0.017-0.061c0.039-0.12 0.061-0.257 0.061-0.4 0-0.592-0.386-1.094-0.921-1.268l-0.009-0.003zM7.333 11.333c-4.049 0.005-7.329 3.286-7.333 7.334v4.666c0 0.368 0.299 0.667 0.667 0.667h2.413c0.173 0 0.317 0.133 0.331 0.304l0.592 7.085c0.029 0.347 0.32 0.613 0.666 0.611h5.334c0 0 0.001 0 0.001 0 0.349 0 0.635-0.268 0.665-0.609l0-0.003 0.592-7.083c0.014-0.173 0.158-0.304 0.331-0.306h2.413c0.368 0 0.667-0.299 0.667-0.667v-4.666c-0.004-4.051-3.288-7.334-7.339-7.334h-0zM7.333 10c0.026 0.001 0.056 0.001 0.086 0.001 2.578 0 4.667-2.090 4.667-4.667s-2.090-4.667-4.667-4.667c-0.030 0-0.061 0-0.091 0.001l0.005-0c-2.54 0.049-4.581 2.119-4.581 4.666s2.041 4.618 4.576 4.666l0.005 0z"></path>
            <path fill="#ff5252" style="fill: var(--color1, #ff5252)" d="M31.707 2.208c-0.134-0.127-0.305-0.216-0.495-0.25l-0.006-0.001c-0.161-0.074-0.349-0.118-0.548-0.118-0.365 0-0.695 0.146-0.936 0.384l-6.153 6.157c-0.061 0.060-0.144 0.097-0.236 0.097s-0.175-0.037-0.236-0.097l-1.573-1.573c-0.241-0.241-0.574-0.39-0.942-0.39-0.736 0-1.333 0.597-1.333 1.333 0 0.368 0.149 0.702 0.391 0.943v0l2.102 2.107c0.88 0.877 2.302 0.877 3.182 0l6.685-6.685c0.231-0.236 0.373-0.56 0.373-0.917 0-0.053-0.003-0.105-0.009-0.157l0.001 0.006c0.008-0.046 0.012-0.099 0.012-0.154 0-0.267-0.107-0.508-0.279-0.685l0 0z"></path>
            <path fill="#ff5252" style="fill: var(--color1, #ff5252)" d="M30.731 9.587c-0.119-0.039-0.256-0.061-0.398-0.061-0.594 0-1.097 0.388-1.269 0.925l-0.003 0.009c-0.787 2.458-3.052 4.206-5.726 4.206-3.314 0-6-2.686-6-6s2.685-5.999 5.997-6h0c0.737 0 1.334-0.597 1.334-1.334s-0.597-1.334-1.334-1.334v0c-0.001 0-0.003 0-0.004 0-4.787 0-8.667 3.88-8.667 8.667s3.88 8.667 8.667 8.667c3.862 0 7.134-2.526 8.254-6.015l0.017-0.061c0.039-0.12 0.061-0.257 0.061-0.4 0-0.592-0.386-1.094-0.921-1.268l-0.009-0.003z"></path>
        </symbol>
        <symbol id="icon-star" viewBox="0 0 32 32">
            <path fill="#ff5252" style="fill: var(--color1, #ff5252)" d="M29.853 10.147c0 0 0 0 0 0 0.917 0 1.7 0.573 2.011 1.38l0.005 0.015c0.309 0.837 0.062 1.776-0.621 2.358l-7.397 6.077 3.098 9.216c0.070 0.201 0.11 0.433 0.11 0.674 0 0.706-0.345 1.332-0.877 1.717l-0.006 0.004c-0.351 0.255-0.79 0.409-1.266 0.409-0.477 0-0.918-0.154-1.276-0.416l0.006 0.004-7.64-5.554-7.64 5.549c-0.352 0.258-0.793 0.412-1.271 0.412s-0.917-0.154-1.275-0.415l0.006 0.004c-0.536-0.39-0.88-1.014-0.88-1.719 0-0.243 0.041-0.477 0.116-0.694l-0.005 0.015 3.096-9.211-7.381-6.061c-0.471-0.392-0.769-0.978-0.769-1.634 0-0.261 0.047-0.511 0.134-0.743l-0.005 0.015c0.313-0.826 1.097-1.403 2.016-1.403 0.002 0 0.003 0 0.005 0h8.717l3.112-8.736c0.304-0.842 1.107-1.405 2.006-1.411 0.006-0 0.012-0 0.019-0 0.912 0 1.691 0.568 2.003 1.369l0.005 0.015 3.123 8.763h8.717zM20.75 19.955c-0.047-0.137-0.075-0.295-0.075-0.459 0-0.45 0.206-0.852 0.528-1.118l0.003-0.002 5.685-4.677c0.082-0.067 0.135-0.168 0.135-0.282 0-0.2-0.162-0.362-0.362-0.362-0.002 0-0.004 0-0.005 0h-6.565c-0.001 0-0.003 0-0.004 0-0.632 0-1.171-0.4-1.376-0.961l-0.003-0.010-2.363-6.645c-0.052-0.143-0.188-0.244-0.346-0.244s-0.294 0.1-0.346 0.241l-0.001 0.003-2.365 6.645c-0.209 0.571-0.748 0.971-1.38 0.971-0.002 0-0.003 0-0.005 0h-6.565c-0 0-0 0-0.001 0-0.157 0-0.292 0.099-0.344 0.237l-0.001 0.003c-0.014 0.037-0.021 0.079-0.021 0.123 0 0.113 0.052 0.214 0.133 0.28l0.001 0.001 5.69 4.672c0.466 0.384 0.646 1.010 0.454 1.579l-2.27 6.757c-0.012 0.034-0.018 0.073-0.018 0.114 0 0.121 0.059 0.228 0.15 0.293l0.001 0.001c0.060 0.044 0.135 0.070 0.216 0.070s0.156-0.026 0.217-0.071l-0.001 0.001 5.584-4.062c0.24-0.176 0.542-0.282 0.868-0.282s0.628 0.106 0.872 0.285l-0.004-0.003 5.592 4.069c0.13 0.094 0.304 0.096 0.434 0 0.091-0.066 0.15-0.173 0.15-0.293 0-0.041-0.007-0.081-0.019-0.117l0.001 0.003-2.272-6.758z"></path>
        </symbol>
        <symbol id="icon-filter" viewBox="0 0 32 32">
            <path fill="#fff" style="fill: var(--color2, #fff); stroke: var(--color2, #fff)" stroke="#fff" stroke-linejoin="miter" stroke-linecap="butt" stroke-miterlimit="4" stroke-width="1.6" d="M10.4 3.2c0-1.325 1.075-2.4 2.4-2.4s2.4 1.075 2.4 2.4v0 6.4c0 1.325-1.075 2.4-2.4 2.4s-2.4-1.075-2.4-2.4v0-6.4zM0.8 6.4c0-0.442 0.358-0.8 0.8-0.8v0h3.2c0.442 0 0.8 0.358 0.8 0.8s-0.358 0.8-0.8 0.8v0h-3.2c-0.442 0-0.8-0.358-0.8-0.8v0zM20 6.4c0-0.442 0.358-0.8 0.8-0.8v0h9.6c0.442 0 0.8 0.358 0.8 0.8s-0.358 0.8-0.8 0.8v0h-9.6c-0.442 0-0.8-0.358-0.8-0.8v0zM26.4 25.6c0-0.442 0.358-0.8 0.8-0.8v0h3.2c0.442 0 0.8 0.358 0.8 0.8s-0.358 0.8-0.8 0.8v0h-3.2c-0.442 0-0.8-0.358-0.8-0.8v0zM0.8 25.6c0-0.442 0.358-0.8 0.8-0.8v0h9.6c0.442 0 0.8 0.358 0.8 0.8s-0.358 0.8-0.8 0.8v0h-9.6c-0.442 0-0.8-0.358-0.8-0.8v0zM16.8 22.4c0-1.325 1.075-2.4 2.4-2.4s2.4 1.075 2.4 2.4v0 6.4c0 1.325-1.075 2.4-2.4 2.4s-2.4-1.075-2.4-2.4v0-6.4z"></path>
        </symbol>
    </defs>
</svg>