<svg width="20" height="20" fill="none" xmlns="http://www.w3.org/2000/svg"><path d="M19.918 7.214a1.346 1.346 0 0 0-1.26-.872h-5.449L11.26.865A1.343 1.343 0 0 0 9.99 0a1.343 1.343 0 0 0-1.255.882L6.79 6.342H1.343c-.565 0-1.07.351-1.262.877a1.325 1.325 0 0 0 .4 1.476l4.612 3.79-1.935 5.756c-.187.55.008 1.157.48 1.499a1.353 1.353 0 0 0 1.587-.001L10 16.27l4.775 3.47a1.353 1.353 0 0 0 1.585.003c.472-.342.668-.947.483-1.497l-1.936-5.76 4.623-3.798c.427-.363.581-.95.387-1.474Z" fill="#FF5252"/></svg>